 
http://desibbrg.org/images/81495356554835998970.png 
http://desibbrg.org/images/78351950688200751266.png 
http://desibbrg.org/images/65321789974589923934.png 
http://desibbrg.org/images/78396679144927736971.png 
http://desibbrg.org/images/00797297097853487376.png

General
Complete name                  : Gholat Ghol - Marathi Drama x264 MP3 [TMB].avi
Format                         : AVI
Format/Info                    : Audio Video Interleave
File size                      : 641 MiB
Duration                       : 2h 6mn
Overall bit rate               : 707 Kbps
Writing application            : Lavf54.63.104

Video
ID                             : 0
Format                         : AVC
Format/Info                    : Advanced Video Codec
Format profile                 : High@L3.0
Format settings, CABAC         : Yes
Format settings, ReFrames      : 1 frame
Codec ID                       : H264
Duration                       : 2h 6mn
Bit rate                       : 439 Kbps
Width                          : 640 pixels
Height                         : 480 pixels
Display aspect ratio           : 4:3
Frame rate mode                : Variable
Frame rate                     : 25.000 fps
Color space                    : YUV
Chroma subsampling             : 4:2:0
Bit depth                      : 8 bits
Scan type                      : Progressive
Bits/(Pixel*Frame)             : 0.057
Stream size                    : 398 MiB (62%)
Writing library                : x264 core 129

Audio
ID                             : 1
Format                         : MPEG Audio
Format version                 : Version 1
Format profile                 : Layer 3
Mode                           : Joint stereo
Mode extension                 : MS Stereo
Codec ID                       : 55
Codec ID/Hint                  : MP3
Duration                       : 2h 6mn
Bit rate mode                  : Constant
Bit rate                       : 256 Kbps
Channel(s)                     : 2 channels
Sampling rate                  : 44.1 KHz
Compression mode               : Lossy
Stream size                    : 232 MiB (36%)
Alignment                      : Aligned on interleaves
Interleave, duration           : 26 ms (0.65 video frame)

Ripper : Manojvb

Seeding 24x7... Extreme Seeding...
